<svg width="24" height="24" viewBox="0 0 24 24" fill="none" xmlns="http://www.w3.org/2000/svg">
<path fill-rule="evenodd" clip-rule="evenodd" d="M21.999 12.0005C21.999 17.5233 17.5219 22.0005 11.999 22.0005C11.1675 22.0005 10.3596 21.899 9.58718 21.7077L9.59152 21.6919L10.6691 17.5966C11.0961 17.6976 11.5411 17.751 11.9979 17.751C15.1735 17.751 17.7479 15.1767 17.7479 12.001C17.7479 8.82541 15.1735 6.25105 11.9979 6.25105C8.82227 6.25105 6.24791 8.82541 6.24791 12.001C6.24791 13.0471 6.52793 14.0301 7.01761 14.8766C7.22502 15.2351 7.68382 15.3577 8.04236 15.1502C8.40091 14.9428 8.52343 14.484 8.31602 14.1255C7.95485 13.5011 7.74791 12.7764 7.74791 12.001C7.74791 9.65384 9.6507 7.75105 11.9979 7.75105C14.3451 7.75105 16.2479 9.65384 16.2479 12.001C16.2479 14.3483 14.3451 16.251 11.9979 16.251C11.6719 16.251 11.355 16.2145 11.0509 16.1453L12.2227 11.6919C12.3281 11.2913 12.0888 10.8811 11.6882 10.7757C11.2876 10.6703 10.8775 10.9096 10.7721 11.3102L8.16013 21.2371C4.5425 19.7318 1.99902 16.1632 1.99902 12.0005C1.99902 6.47764 6.47618 2.00049 11.999 2.00049C17.5219 2.00049 21.999 6.47764 21.999 12.0005Z" fill="#28303F"/>
</svg>
