<svg width="24" height="24" viewBox="0 0 24 24" fill="none" xmlns="http://www.w3.org/2000/svg">
<path d="M15.2844 3.99951C13.1805 3.99951 11.475 5.79037 11.475 7.99951C11.475 8.33333 11.5139 8.6576 11.5873 8.96759C9.5644 8.96759 6.51743 8.55859 3.97273 6.00912C3.63435 5.6701 3.01038 5.89677 3.03385 6.37519C3.41097 14.0622 6.70306 16.3044 8.39839 16.444C7.30364 17.5252 5.71339 18.3786 4.11318 18.7617C3.69085 18.8628 3.58653 19.3251 3.99949 19.4594C5.14452 19.8318 6.78346 19.9753 7.66564 19.9995C13.9065 19.9995 18.9789 14.7466 19.0918 8.22181C19.9112 7.68896 20.436 6.53201 20.7309 5.71242C20.8027 5.51281 20.4756 5.28024 20.2797 5.36177C19.6677 5.61659 18.8906 5.677 18.2287 5.46132C17.53 4.56878 16.4705 3.99951 15.2844 3.99951Z" fill="#28303F"/>
</svg>
